<?xml version="1.0" standalone="no"?>
<!DOCTYPE svg PUBLIC "-//W3C//DTD SVG 20010904//EN"
 "http://www.w3.org/TR/2001/REC-SVG-20010904/DTD/svg10.dtd">
<svg version="1.0" xmlns="http://www.w3.org/2000/svg"
 width="600.000000pt" height="400.000000pt" viewBox="0 0 600.000000 400.000000"
 preserveAspectRatio="xMidYMid meet">

<g transform="translate(0.000000,400.000000) scale(0.100000,-0.100000)"
fill="#000000" stroke="none">
<path d="M0 2000 l0 -2000 3000 0 3000 0 0 2000 0 2000 -3000 0 -3000 0 0
-2000z m3040 238 c0 -53 -11 -68 -46 -68 -24 0 -34 5 -34 15 0 8 -4 15 -10 15
-5 0 -10 14 -10 30 0 29 1 30 50 30 45 0 50 -2 50 -22z m30 -100 c141 -71 108
-283 -48 -314 -100 -20 -202 66 -202 169 0 54 40 118 90 144 55 29 104 29 160
1z m69 -2 c15 -16 19 -26 11 -31 -13 -8 -50 22 -50 42 0 20 14 16 39 -11z"/>
<path d="M2914 2066 c-28 -28 -34 -42 -34 -76 0 -34 6 -48 34 -76 28 -28 42
-34 76 -34 34 0 48 6 76 34 28 28 34 42 34 76 0 34 -6 48 -34 76 -28 28 -42
34 -76 34 -34 0 -48 -6 -76 -34z m116 2 c-1 -7 -9 -29 -20 -48 l-19 -35 -1 48
c0 40 3 47 20 47 11 0 20 -6 20 -12z"/>
</g>
</svg>
